<svg width="98" height="17" fill="none" xmlns="http://www.w3.org/2000/svg"><path d="M97.64 8.881c-.36.814-2.024 1.4-3.55 1.25-.68-.065-1.298-.24-1.764-.493l-.382-.207-.45.069c-.412.065-.978.073-6.383.085l-5.94.017v5.314l.199.098c.107.053.29.179.397.28.183.163.206.224.206.55 0 .297-.03.399-.168.53-.893.894-3.329.813-3.993-.131-.305-.431-.099-.9.527-1.233l.351-.183-.023-2.462-.023-2.462-36.546.008-36.547.012-1.756-.692C.833 8.853.039 8.523.039 8.495c0-.029.786-.362 1.74-.737l1.741-.683h73.124l.023-2.475.023-2.47-.252-.134c-.656-.354-.855-.916-.465-1.327.832-.895 3.153-.89 3.97.004.13.143.168.26.168.48 0 .342-.191.59-.65.835l-.29.155V7.379l5.016-.011c5.108-.013 6.658.016 7.398.134l.375.06.244-.158c.511-.321 1.534-.574 2.344-.574.504 0 1.213.098 1.618.224 1.16.362 1.779 1.132 1.474 1.827z" fill="#000"/></svg>